<?xml version="1.0" encoding="UTF-8" standalone="no"?>
<svg width="1024" height="1024" viewBox="0 0 1024 1024" xmlns="http://www.w3.org/2000/svg">
  <!-- Background -->
  <rect x="0" y="0" width="1024" height="1024" fill="#FFE082" rx="200" ry="200"/>

  <!-- Punch Card -->
  <rect x="112" y="262" width="800" height="500" fill="#FFF8E1" stroke="#FFB300" stroke-width="24" rx="20" ry="20"/>

  <!-- Punch Holes Grid -->
  <g id="holes">
    <!-- Row 1 -->
    <circle cx="212" cy="362" r="30" fill="#FFB300"/>
    <circle cx="312" cy="362" r="30" fill="#FFB300"/>
    <circle cx="412" cy="362" r="30" fill="#FFB300"/>
    <circle cx="512" cy="362" r="30" fill="#FFB300"/>
    <circle cx="612" cy="362" r="30" fill="#FFB300"/>
    <circle cx="712" cy="362" r="30" fill="#FFB300"/>
    <circle cx="812" cy="362" r="30" fill="#FFB300"/>

    <!-- Row 2 -->
    <circle cx="212" cy="462" r="30" fill="#FFB300"/>
    <circle cx="312" cy="462" r="30" fill="none" stroke="#FFB300" stroke-width="12"/>
    <circle cx="412" cy="462" r="30" fill="#FFB300"/>
    <circle cx="512" cy="462" r="30" fill="none" stroke="#FFB300" stroke-width="12"/>
    <circle cx="612" cy="462" r="30" fill="#FFB300"/>
    <circle cx="712" cy="462" r="30" fill="none" stroke="#FFB300" stroke-width="12"/>
    <circle cx="812" cy="462" r="30" fill="#FFB300"/>

    <!-- Row 3 -->
    <circle cx="212" cy="562" r="30" fill="none" stroke="#FFB300" stroke-width="12"/>
    <circle cx="312" cy="562" r="30" fill="#FFB300"/>
    <circle cx="412" cy="562" r="30" fill="none" stroke="#FFB300" stroke-width="12"/>
    <circle cx="512" cy="562" r="30" fill="#FFB300"/>
    <circle cx="612" cy="562" r="30" fill="none" stroke="#FFB300" stroke-width="12"/>
    <circle cx="712" cy="562" r="30" fill="#FFB300"/>
    <circle cx="812" cy="562" r="30" fill="none" stroke="#FFB300" stroke-width="12"/>

    <!-- Row 4 -->
    <circle cx="212" cy="662" r="30" fill="#FFB300"/>
    <circle cx="312" cy="662" r="30" fill="none" stroke="#FFB300" stroke-width="12"/>
    <circle cx="412" cy="662" r="30" fill="#FFB300"/>
    <circle cx="512" cy="662" r="30" fill="none" stroke="#FFB300" stroke-width="12"/>
    <circle cx="612" cy="662" r="30" fill="#FFB300"/>
    <circle cx="712" cy="662" r="30" fill="none" stroke="#FFB300" stroke-width="12"/>
    <circle cx="812" cy="662" r="30" fill="#FFB300"/>
  </g>

  <!-- Card Label -->
  <text x="512" y="200" font-family="Arial" font-size="80" fill="#FFB300" text-anchor="middle" font-weight="bold">MoinsenPunchcard</text>
</svg>